<svg width="329" height="48" viewBox="0 0 329 48" fill="none" xmlns="http://www.w3.org/2000/svg">
<path d="M0 25.9805V33.3205H14.94V48.0005H22.98V33.3205H37.92V25.9805H0Z" fill="black"/>
<path d="M37.92 22.02V14.68H22.98V0H14.94V14.68H0V22.02H14.95H37.91H37.92Z" fill="black"/>
<path d="M68.5199 18.7012L57.9199 29.3012" stroke="black" stroke-width="4" stroke-miterlimit="10"/>
<path d="M57.9199 18.7012L68.5199 29.3012" stroke="black" stroke-width="4" stroke-miterlimit="10"/>
<path d="M263.9 9.59961C271.65 9.59961 276.76 14.7798 276.76 24.0195C276.76 33.2595 271.65 38.4004 263.9 38.4004C256.15 38.4002 251.041 33.2194 251.041 24.0195C251.041 14.82 256.15 9.59977 263.9 9.59961ZM190.781 9.91016C194.15 9.91037 196.331 12.1204 196.331 15.5303V32.4004C196.33 35.81 194.15 38.0193 190.781 38.0195H167.39C164.02 38.0195 161.841 35.8101 161.84 32.4004V15.5303C161.84 12.1203 164.02 9.91022 167.39 9.91016H190.781ZM295.81 22.4697V9.98047H303.94V38.0098H295.09L288.14 25.5195V38.0098H280.02V9.98047H289.02L295.81 22.4697ZM328.55 17.6299H316.34V20.2598H324.161V27.5996H316.34V30.3496H328.55V38H308.14V9.98047H328.55V17.6299ZM124.6 38H114.06L112.75 33.7803H99.7505L98.4399 38H88.52L98.6304 9.88965H114.491L124.6 38ZM226.71 9.90039C230.43 9.90048 232.81 12.3001 232.81 16.0801V18.7695C232.81 21.2195 231.7 23.0301 229.84 23.8701C231.9 24.6301 233.17 26.52 233.17 29.1299V31.8203C233.17 35.5501 230.8 38 227.07 38H200.86V9.90039H226.71ZM247.081 38H238.491V29.2998H247.081V38ZM151.13 9.88965C154.85 9.8897 157.23 12.2904 157.23 16.0703V18.7598C157.23 21.2098 156.12 23.0204 154.26 23.8604C156.32 24.6204 157.59 26.5102 157.59 29.1201V31.8096C157.59 35.5394 155.22 37.99 151.491 37.9902H130.69C127.32 37.9901 125.14 35.7799 125.14 32.3701V27.0303H134.661V29.8398C134.661 30.5198 135.18 31.04 135.85 31.04H146.57C147.24 31.04 147.76 30.5198 147.76 29.8398V28.3604C147.76 27.6804 147.24 27.1602 146.57 27.1602H137.65V20.7402H146.21C146.88 20.7401 147.4 20.2199 147.4 19.54V18.0898C147.4 17.4 146.88 16.88 146.21 16.8799H135.85C135.18 16.88 134.661 17.4001 134.661 18.0801V20.75H125.14V16.6396C125.14 12.5398 127.76 9.88965 131.8 9.88965H151.13ZM210.22 31.1699H222.15C222.82 31.1699 223.34 30.6497 223.34 29.9697V28.3604C223.34 27.6804 222.82 27.1602 222.15 27.1602H210.22V31.1699ZM172.94 17.1396C172.27 17.1398 171.751 17.66 171.75 18.3398V29.5801C171.751 30.2599 172.27 30.7801 172.94 30.7803H185.23C185.9 30.7803 186.42 30.26 186.42 29.5801V18.3398C186.42 17.6599 185.9 17.1396 185.23 17.1396H172.94ZM263.9 17.3301C261.27 17.3303 259.36 19.2201 259.36 24.0195C259.36 28.8193 261.26 30.6698 263.9 30.6699C266.53 30.6699 268.44 28.7395 268.44 24.0195C268.44 19.2999 266.53 17.3301 263.9 17.3301ZM101.77 27.3604H110.73L107.36 16.7197H105.14L101.77 27.3604ZM210.22 20.7295H221.791C222.46 20.7294 222.98 20.21 222.98 19.5303V17.9199C222.98 17.24 222.46 16.7199 221.791 16.7197H210.22V20.7295Z" fill="black"/>
</svg>
