<svg width="232" height="55" viewBox="0 0 232 55" fill="none" xmlns="http://www.w3.org/2000/svg">
<rect x="1.15674" y="1.15625" width="229.36" height="52" stroke="black" stroke-width="2.31324" stroke-miterlimit="10"/>
<path d="M102.622 7.15625C111.169 7.15625 116.868 12.6333 116.868 26.541C116.868 41.5687 111.058 47.1562 102.622 47.1562C94.1849 47.1561 88.3209 41.6794 88.3208 27.2119C88.3208 12.6335 94.0741 7.15637 102.622 7.15625ZM41.1196 32.4111H41.1753L48.9966 7.60449H58.8862V36.8379C62.7799 36.0501 64.029 34.593 64.3081 23.5186L64.3013 23.5244L64.7505 7.60449H88.0493V46.7119H78.8306V15.3096H72.3511L72.0737 23.9121C71.5691 42.8537 67.1016 46.9277 60.6216 46.9277H60.1724L58.8862 38.0215V46.7119H49.8892V21.9062H49.8335L42.0679 46.7119H32.1226V15.7031H24.3071V46.7061H15.0337V15.7031H7.15674V7.60449H41.1196V32.4111ZM152.677 32.4111H152.732L160.554 7.60449H170.443V46.7119H161.446V21.9062H161.391L153.625 46.7119H143.68V7.60449H152.677V32.4111ZM180.775 16.6572C180.775 19.0017 180.664 22.0783 180.664 24.5889L188.652 7.60449H196.695L188.203 24.6445L197.753 44.709V7.60449H206.75V32.4111H206.806L214.627 7.60449H224.517V46.7119H215.52V21.9062H215.464L207.699 46.7119H188.596L180.664 28.7803C180.664 31.2971 180.775 34.3127 180.775 36.6572V46.7119H171.556V7.60449H180.775V16.6572ZM131.39 7.60449C138.375 7.60449 142.449 11.7403 142.449 17.8818C142.449 22.3492 140.27 24.9768 137.871 26.3184C140.443 27.3769 143.513 29.9492 143.513 35.6475C143.513 42.349 139.434 46.706 131.951 46.7061H117.144V7.60449H131.39ZM102.622 14.4238C100.499 14.424 98.3755 16.2152 98.3755 27.1621C98.3755 38.1094 100.499 39.6796 102.622 39.6797V39.6729C104.689 39.6729 106.813 37.7164 106.813 26.6025C106.813 16.2086 104.745 14.4238 102.622 14.4238ZM126.252 39.6719H130.16C132.677 39.6719 134.35 37.943 134.35 34.6445C134.35 31.3461 132.677 29.7832 130.16 29.7832H126.252V39.6719ZM126.252 23.1309H129.938C132.061 23.1309 133.569 21.5677 133.569 18.7188C133.569 15.8695 132.061 14.5273 129.938 14.5273H126.252V23.1309Z" fill="black"/>
</svg>
